<?xml version="1.0" encoding="iso-8859-1"?>
<!-- Generator: Adobe Illustrator 19.0.0, SVG Export Plug-In . SVG Version: 6.00 Build 0)  -->
<svg version="1.1" id="Capa_1" xmlns="http://www.w3.org/2000/svg" xmlns:xlink="http://www.w3.org/1999/xlink" x="0px" y="0px"
	 viewBox="0 0 480 480" style="enable-background:new 0 0 480 480;" xml:space="preserve">
<g>
	<path d="M184,64h112c4.418,0,8-3.582,8-8s-3.582-8-8-8H184c-4.418,0-8,3.582-8,8S179.582,64,184,64z"/>
	<path d="M224,40h32c4.418,0,8-3.582,8-8s-3.582-8-8-8h-8V8c0-4.418-3.582-8-8-8s-8,3.582-8,8v16h-8c-4.418,0-8,3.582-8,8
		S219.582,40,224,40z"/>
	<path d="M328,464v-24c0-4.418-3.582-8-8-8h-33.041c-0.583-4.183-1.409-10.122-2.419-17.417c2.089-1.443,3.46-3.852,3.46-6.583
		c0-3.51-2.265-6.486-5.411-7.563C273.504,334.37,256,204.433,256,184c0-22.486,10.729-77.325,14.521-96H280c4.418,0,8-3.582,8-8
		s-3.582-8-8-8h-15.919c-0.031,0-0.061,0-0.092,0h-47.981c-0.031,0-0.061,0-0.092,0H200c-4.418,0-8,3.582-8,8s3.582,8,8,8h9.479
		C213.271,106.675,224,161.514,224,184c0,20.433-17.504,150.37-26.589,216.437C194.265,401.514,192,404.49,192,408
		c0,2.731,1.371,5.14,3.46,6.583c-1.009,7.295-1.835,13.234-2.419,17.417H160c-4.418,0-8,3.582-8,8v24c-4.418,0-8,3.582-8,8
		s3.582,8,8,8h176c4.418,0,8-3.582,8-8S332.418,464,328,464z M270.803,432H248v-16h20.58
		C269.468,422.417,270.222,427.836,270.803,432z M266.373,400H248V261.077C253.709,307.015,261.252,362.758,266.373,400z
		 M248,120.622V88h6.19C252.611,95.841,250.3,107.658,248,120.622z M232,88v32.622c-2.3-12.964-4.611-24.781-6.19-32.622H232z
		 M232,261.077V400h-18.373C218.748,362.758,226.291,307.015,232,261.077z M211.42,416H232v16h-22.803
		C209.778,427.836,210.532,422.417,211.42,416z M168,448h31.996c0.005,0,0.009,0.001,0.014,0.001c0.007,0,0.014-0.001,0.021-0.001
		h79.938c0.007,0,0.014,0.001,0.021,0.001c0.005,0,0.009-0.001,0.014-0.001H312v16H168V448z"/>
</g>
<g>
</g>
<g>
</g>
<g>
</g>
<g>
</g>
<g>
</g>
<g>
</g>
<g>
</g>
<g>
</g>
<g>
</g>
<g>
</g>
<g>
</g>
<g>
</g>
<g>
</g>
<g>
</g>
<g>
</g>
</svg>
